# xmcd
#
# Track frame offsets:
#	150
#	21582
#	33365
#	47420
#	67472
#	88695
#	103545
#	123192
#	146292
#	167527
#	179252
#	193265
#	213340
#	234572
#	249357
#	268977
#
# Disc length: 3893 seconds
#
# Revision: 1
# Processed by: cddbd v1.5.1PL2 Copyright (c) Steve Scherf et al.
# Submitted via: audiograbber 1.83.01
#
DISCID=e50f3310
DTITLE=Twain, Shania - SC2039
DYEAR=1900
DGENRE=Country
TTITLE0=If You're Not In It For Love
TTITLE1=Dance With Me
TTITLE2=You Lay A Whole Lot Of Love On Me
TTITLE3=Any Man Of Man
TTITLE4=You Win My Love
TTITLE5=No One Needs To Know
TTITLE6=Who's Bed Have Your Boots Been Under
TTITLE7=Woman In Me Needs
TTITLE8=If You're Not In It For Love (Vocal)
TTITLE9=Dance With The One (Vocal)
TTITLE10=You Lay A Whole Lot Of Love On Me (Vocal)
TTITLE11=Any Man Of Mine (Vocal)
TTITLE12=You Win My Love (Vocal)
TTITLE13=No One Needs To Know (Vocal)
TTITLE14=Who's Boots Have Your Boots Been Under (Vocal)
TTITLE15=Woman In Me Needs (Vocal)
EXTD=
EXTT0=
EXTT1=
EXTT2=
EXTT3=
EXTT4=
EXTT5=
EXTT6=
EXTT7=
EXTT8=
EXTT9=
EXTT10=
EXTT11=
EXTT12=
EXTT13=
EXTT14=
EXTT15=
PLAYORDER=
